<?xml version="1.0" encoding="UTF-8" standalone="no"?>
<!-- Created with Inkscape (http://www.inkscape.org/) -->

<svg
   version="1.1"
   id="svg2"
   width="2666.6667"
   height="2666.6667"
   viewBox="0 0 2666.6667 2666.6667"
   sodipodi:docname="34122022_18.eps"
   xmlns:inkscape="http://www.inkscape.org/namespaces/inkscape"
   xmlns:sodipodi="http://sodipodi.sourceforge.net/DTD/sodipodi-0.dtd"
   xmlns="http://www.w3.org/2000/svg"
   xmlns:svg="http://www.w3.org/2000/svg">
  <defs
     id="defs6" />
  <sodipodi:namedview
     id="namedview4"
     pagecolor="#ffffff"
     bordercolor="#000000"
     borderopacity="0.25"
     inkscape:showpageshadow="2"
     inkscape:pageopacity="0.0"
     inkscape:pagecheckerboard="0"
     inkscape:deskcolor="#d1d1d1" />
  <g
     id="g8"
     inkscape:groupmode="layer"
     inkscape:label="ink_ext_XXXXXX"
     transform="matrix(1.3333333,0,0,-1.3333333,0,2666.6667)">
    <g
       id="g10"
       transform="scale(0.1)">
      <path
         d="M 20000,0 H 0 V 20000 H 20000 V 0"
         style="fill:#ffffff;fill-opacity:1;fill-rule:nonzero;stroke:none"
         id="path12" />
      <path
         d="m 9546.73,13823.7 c 0,0 1632.17,164.4 753.57,1127.6 -131.8,144.4 -209.1,330.4 -216.1,525.8 v 0 c -0.4,11.8 -4.6,23.2 -11.2,34 -38,61.6 -158.68,86.7 -199.7,27.1 0,0 -558.35,-989.9 153.3,-939.6 31.5,2.2 56.5,-29.3 72.5,-56.6 11.9,-20.2 16.8,-41.7 -5.4,-52.1 -87.6,-40.8 -225.72,-63.2 -427.35,11.6 v 0 c -130.39,86.9 -195.74,243.7 -165.7,397.5 l 132.27,677.3 c 9.06,46.3 -26.45,89.4 -73.69,89.4 v 0 c -35.25,0 -65.74,-24.5 -73.33,-58.9 l -195.28,-885.7 c -9.21,-41.8 5.89,-85.2 39.04,-112.2 l 313.56,-255.5 c 34.43,-28 38.73,-79 9.49,-112.4 l -17.69,-20.3 c -23.76,-27.1 -62.96,-34.6 -95.01,-18 l -497.98,256.8 c -39.2,20.2 -60.55,63.7 -52.57,107 l 174.84,950.6 c 8.12,44.1 -25.78,84.8 -70.68,84.8 v 0 c -34.63,0 -64.34,-24.7 -70.65,-58.7 l -198.95,-1072.1 c -6.52,-48.5 18.87,-95.7 62.93,-117 l 247.47,-119.6 c 60.93,-29.4 58.5,-117 -3.96,-143.1 v 0 c -19.38,-8 -41.19,-8 -60.55,0.1 l -521.74,219 c -53.4,22.4 -81.27,81.6 -64.59,137 l 288.42,959.2 c 12.53,41.7 -18.64,83.6 -62.12,83.6 v 0 c -28.66,0 -53.92,-18.8 -62.12,-46.2 l -276.49,-925.7 c -11.37,-38 -64.83,-39.2 -77.82,-1.6 l -1.8,5.2 c -64.48,186.2 -48.63,390.3 43.56,563.8 109.57,206.3 256.14,482.9 346.75,653.9 51.26,96.8 151.79,157.3 261.3,157.3 h 23.35 c 106.64,0 204.51,59.1 254.18,153.4 l 3.57,6.8 c 40.1,76.2 136.47,99.1 205.28,49.9 l 3.3,-2.4 c 52.86,-37.7 124.61,-34.8 174.24,7.1 l 15,12.7 c 50.08,42.3 125.04,35.6 166.9,-14.8 l 5.38,-6.5 c 36.22,-43.7 95.46,-60.7 149.35,-43 l 4.76,1.6 c 162.73,53.5 341.13,27.2 481.43,-71 341.7,-239.1 991.6,-687.9 1275.2,-883.7 90.4,-62.4 195.9,-99.5 305.5,-107.4 v 0 c 174.3,-12.7 335,-98.6 442.3,-236.6 813.2,-1045.6 4186.2,-5559.6 2651.9,-6601.3 C 13366.5,6981.6 10966.2,6263.9 9371.3,6551 c 0,0 842.9,-494.4 2599.7,-111.6 0,0 -1683.7,-861.3 -2994.97,-295.1 -1311.26,566.2 554.76,1507.2 554.76,1507.2 0,0 -3110.02,-390.8 -2264.74,-3803.8 0,0 -16.08,18.7 -43.55,53.9 -1107.71,1420.6 -310.34,3504.4 1459.24,3841.5 829.16,157.9 1878.56,534.4 2427.96,1428.3 0,0 -1579.31,428.4 -2924.65,-780.4 0,0 506.94,1189.3 2320.25,1111.3 0,0 -2115.09,429 -3991.96,-1130.8 0,0 -317.05,1013.8 -1252.93,1481.8 0,0 1013.88,78 1228.35,-468 0,0 58.49,1033.4 -1988.76,741 0,0 1090.56,1111.3 3139.12,214.4 0,0 -370.45,-233.9 -487.44,-740.9 0,0 2593.19,2886.7 5127.92,-428.4 0,0 -546,896.4 -682.5,974.4 0,0 242.4,1136.9 145.2,2155.4 -74,775.4 -774.7,1336.1 -1547.1,1234.9 -825.97,-108.2 -1955.61,-108 -2248.13,623.5 -10.44,26.1 -11.56,55 -3.63,82 v 0 c 29.85,101.4 163.34,123.1 224.31,36.6 191.65,-271.6 604.99,-639.4 1378.98,-454.5"
         style="fill:#353638;fill-opacity:1;fill-rule:nonzero;stroke:none"
         id="path14" />
    </g>
  </g>
</svg>
