<svg width="202" height="30" viewBox="0 0 202 30" fill="none" xmlns="http://www.w3.org/2000/svg">
<path d="M0.36 29V25.76L1.68 25.64C2.45333 25.56 2.84 25.1867 2.84 24.52V5.92L0.56 5.8V2.4H19.88V9.04L15.8 9.32V7.72C15.8 7.26667 15.7333 6.94667 15.6 6.76C15.4667 6.57333 15.1467 6.48 14.64 6.48H7.72V13.56H17.56V17.64H7.72V25.48L11.28 25.6V29H0.36ZM29.2788 8.88V25.68L31.5588 25.8V29H22.0387V25.96L23.3587 25.84C24.1321 25.76 24.5188 25.3333 24.5188 24.56V13.44C24.5188 12.9867 24.4388 12.68 24.2788 12.52C24.1454 12.36 23.8921 12.28 23.5188 12.28L22.1188 12.2V8.88H29.2788ZM24.2388 5.44C23.6788 4.88 23.3988 4.17333 23.3988 3.32C23.3988 2.46667 23.6788 1.76 24.2388 1.2C24.7988 0.613332 25.5321 0.32 26.4388 0.32C27.3454 0.32 28.0788 0.613332 28.6388 1.2C29.2254 1.76 29.5188 2.46667 29.5188 3.32C29.5188 4.17333 29.2254 4.88 28.6388 5.44C28.0788 5.97333 27.3454 6.24 26.4388 6.24C25.5321 6.24 24.7988 5.97333 24.2388 5.44ZM38.3147 4.64H40.9147V8.88H46.2347L45.8347 12.24H40.9147V22.76C40.9147 23.9333 41.128 24.76 41.5547 25.24C41.9814 25.6933 42.6347 25.92 43.5147 25.92C44.4214 25.92 45.328 25.64 46.2347 25.08L47.4347 28.16C46.1014 29.0933 44.408 29.56 42.3547 29.56C41.1547 29.56 40.1414 29.4 39.3147 29.08C38.488 28.7867 37.8747 28.4533 37.4747 28.08C37.0747 27.7067 36.768 27.16 36.5547 26.44C36.3414 25.72 36.2214 25.16 36.1947 24.76C36.168 24.3333 36.1547 23.72 36.1547 22.92V12.24H33.3147L33.7147 9.32C34.968 9.21333 35.9147 8.77333 36.5547 8C37.1947 7.2 37.7814 6.08 38.3147 4.64ZM48.7128 12.08V8.88H55.4728V11.48C56.1661 10.4933 57.0861 9.72 58.2328 9.16C59.3795 8.57333 60.6195 8.28 61.9528 8.28C63.9795 8.28 65.5395 8.86667 66.6328 10.04C67.7528 11.1867 68.3128 12.92 68.3128 15.24V25.68L70.5928 25.8V29H61.0728V25.96L62.3928 25.84C62.7928 25.7867 63.0861 25.68 63.2728 25.52C63.4595 25.3333 63.5528 25 63.5528 24.52V16.28C63.5528 14.8133 63.3261 13.7333 62.8728 13.04C62.4195 12.32 61.5528 11.96 60.2728 11.96C59.0195 11.96 58.0195 12.36 57.2728 13.16C56.5261 13.96 56.1528 14.9067 56.1528 16V25.68L58.4328 25.8V29H48.9128V25.96L50.2328 25.84C50.6328 25.7867 50.9261 25.68 51.1128 25.52C51.2995 25.3333 51.3928 25 51.3928 24.52V13.44C51.3928 12.64 51.0595 12.2267 50.3928 12.2L48.7128 12.08ZM82.9772 8.28C84.9772 8.28 86.5639 8.77333 87.7372 9.76C88.9105 10.72 89.4972 12.08 89.4972 13.84C89.4972 15.0133 89.2439 16.0533 88.7372 16.96C88.2305 17.84 87.6039 18.5333 86.8572 19.04C86.1105 19.5467 85.2039 19.96 84.1372 20.28C82.3505 20.8133 80.3372 21.08 78.0972 21.08C78.1772 22.4933 78.6172 23.64 79.4172 24.52C80.2172 25.3733 81.4439 25.8 83.0972 25.8C84.7505 25.8 86.4039 25.2133 88.0572 24.04L89.5772 27.28C89.0439 27.76 88.1372 28.2533 86.8572 28.76C85.6039 29.2667 84.1639 29.52 82.5372 29.52C79.2839 29.52 76.8972 28.6267 75.3772 26.84C73.8572 25.0267 73.0972 22.5467 73.0972 19.4C73.0972 16.2533 73.9639 13.6133 75.6972 11.48C77.4305 9.34667 79.8572 8.28 82.9772 8.28ZM81.1372 17.44C82.1239 17.2533 83.0305 16.8667 83.8572 16.28C84.6839 15.6667 85.0972 14.9467 85.0972 14.12C85.0972 12.4933 84.2972 11.68 82.6972 11.68C81.2039 11.68 80.0572 12.28 79.2572 13.48C78.4572 14.6533 78.0172 16.0667 77.9372 17.72C79.1105 17.6933 80.1772 17.6 81.1372 17.44ZM102.792 11.92C102.152 11.68 101.379 11.56 100.472 11.56C99.5655 11.56 98.8322 11.7733 98.2722 12.2C97.7389 12.6 97.4722 13.1067 97.4722 13.72C97.4722 14.3067 97.5655 14.7733 97.7522 15.12C97.9655 15.44 98.2855 15.72 98.7122 15.96C99.3789 16.3067 100.179 16.6133 101.112 16.88C102.046 17.12 102.739 17.32 103.192 17.48C103.646 17.6133 104.206 17.8533 104.872 18.2C105.566 18.5467 106.086 18.92 106.432 19.32C107.366 20.3067 107.832 21.5733 107.832 23.12C107.832 25.12 107.099 26.6933 105.632 27.84C104.192 28.96 102.352 29.52 100.112 29.52C96.8589 29.52 94.4055 29.1067 92.7522 28.28V22.72L96.3522 22.44V24.36C96.3522 25.5333 97.4722 26.12 99.7122 26.12C101.952 26.12 103.072 25.3067 103.072 23.68C103.072 23.0933 102.872 22.6133 102.472 22.24C102.099 21.8667 101.726 21.6133 101.352 21.48C100.979 21.3467 100.526 21.2133 99.9922 21.08C99.4855 20.9467 98.9789 20.8133 98.4722 20.68C97.9922 20.5467 97.4589 20.3733 96.8722 20.16C96.3122 19.92 95.6855 19.5867 94.9922 19.16C93.6322 18.28 92.9522 16.8133 92.9522 14.76C92.9522 12.68 93.6855 11.08 95.1522 9.96C96.6189 8.84 98.4589 8.28 100.672 8.28C102.912 8.28 105.126 8.81333 107.312 9.88V14.68L103.712 14.96V13.28C103.712 12.6133 103.406 12.16 102.792 11.92ZM120.839 11.92C120.199 11.68 119.426 11.56 118.519 11.56C117.612 11.56 116.879 11.7733 116.319 12.2C115.786 12.6 115.519 13.1067 115.519 13.72C115.519 14.3067 115.612 14.7733 115.799 15.12C116.012 15.44 116.332 15.72 116.759 15.96C117.426 16.3067 118.226 16.6133 119.159 16.88C120.092 17.12 120.786 17.32 121.239 17.48C121.692 17.6133 122.252 17.8533 122.919 18.2C123.612 18.5467 124.132 18.92 124.479 19.32C125.412 20.3067 125.879 21.5733 125.879 23.12C125.879 25.12 125.146 26.6933 123.679 27.84C122.239 28.96 120.399 29.52 118.159 29.52C114.906 29.52 112.452 29.1067 110.799 28.28V22.72L114.399 22.44V24.36C114.399 25.5333 115.519 26.12 117.759 26.12C119.999 26.12 121.119 25.3067 121.119 23.68C121.119 23.0933 120.919 22.6133 120.519 22.24C120.146 21.8667 119.772 21.6133 119.399 21.48C119.026 21.3467 118.572 21.2133 118.039 21.08C117.532 20.9467 117.026 20.8133 116.519 20.68C116.039 20.5467 115.506 20.3733 114.919 20.16C114.359 19.92 113.732 19.5867 113.039 19.16C111.679 18.28 110.999 16.8133 110.999 14.76C110.999 12.68 111.732 11.08 113.199 9.96C114.666 8.84 116.506 8.28 118.719 8.28C120.959 8.28 123.172 8.81333 125.359 9.88V14.68L121.759 14.96V13.28C121.759 12.6133 121.452 12.16 120.839 11.92ZM155.374 29H136.374V25.76L137.694 25.64C138.467 25.56 138.854 25.1867 138.854 24.52V5.92L136.574 5.8V2.4H146.214V5.64L144.894 5.76C144.12 5.84 143.734 6.26667 143.734 7.04V24.88H150.374C150.747 24.88 150.987 24.7867 151.094 24.6C151.227 24.3867 151.294 24.0533 151.294 23.6V20.8L155.374 21.08V29ZM165.138 8.88V25.68L167.418 25.8V29H157.898V25.96L159.218 25.84C159.991 25.76 160.378 25.3333 160.378 24.56V13.44C160.378 12.9867 160.298 12.68 160.138 12.52C160.005 12.36 159.751 12.28 159.378 12.28L157.978 12.2V8.88H165.138ZM160.098 5.44C159.538 4.88 159.258 4.17333 159.258 3.32C159.258 2.46667 159.538 1.76 160.098 1.2C160.658 0.613332 161.391 0.32 162.298 0.32C163.205 0.32 163.938 0.613332 164.498 1.2C165.085 1.76 165.378 2.46667 165.378 3.32C165.378 4.17333 165.085 4.88 164.498 5.44C163.938 5.97333 163.205 6.24 162.298 6.24C161.391 6.24 160.658 5.97333 160.098 5.44ZM172.254 24.52V12.24H168.814V8.88H172.254V7.36C172.254 4.74667 172.854 2.86666 174.054 1.72C175.174 0.626665 176.814 0.079998 178.974 0.079998C181.134 0.079998 183.054 0.546665 184.734 1.48L183.574 4.68C182.294 4.01333 181.094 3.68 179.974 3.68C178.854 3.68 178.081 3.96 177.654 4.52C177.227 5.05333 177.014 5.88 177.014 7V8.88H182.934V12.24H177.014V25.64L180.374 25.8V29H169.774V25.96L171.094 25.84C171.494 25.7867 171.787 25.68 171.974 25.52C172.161 25.3333 172.254 25 172.254 24.52ZM194.579 8.28C196.579 8.28 198.165 8.77333 199.339 9.76C200.512 10.72 201.099 12.08 201.099 13.84C201.099 15.0133 200.845 16.0533 200.339 16.96C199.832 17.84 199.205 18.5333 198.459 19.04C197.712 19.5467 196.805 19.96 195.739 20.28C193.952 20.8133 191.939 21.08 189.699 21.08C189.779 22.4933 190.219 23.64 191.019 24.52C191.819 25.3733 193.045 25.8 194.699 25.8C196.352 25.8 198.005 25.2133 199.659 24.04L201.179 27.28C200.645 27.76 199.739 28.2533 198.459 28.76C197.205 29.2667 195.765 29.52 194.139 29.52C190.885 29.52 188.499 28.6267 186.979 26.84C185.459 25.0267 184.699 22.5467 184.699 19.4C184.699 16.2533 185.565 13.6133 187.299 11.48C189.032 9.34667 191.459 8.28 194.579 8.28ZM192.739 17.44C193.725 17.2533 194.632 16.8667 195.459 16.28C196.285 15.6667 196.699 14.9467 196.699 14.12C196.699 12.4933 195.899 11.68 194.299 11.68C192.805 11.68 191.659 12.28 190.859 13.48C190.059 14.6533 189.619 16.0667 189.539 17.72C190.712 17.6933 191.779 17.6 192.739 17.44Z" fill="white"/>
</svg>
